<svg version="1.1" viewBox="0.0 0.0 168.37007874015748 166.51181102362204" fill="none" stroke="none" stroke-linecap="square" stroke-miterlimit="10" xmlns:xlink="http://www.w3.org/1999/xlink" xmlns="http://www.w3.org/2000/svg"><clipPath id="p.0"><path d="m0 0l168.37007 0l0 166.51181l-168.37007 0l0 -166.51181z" clip-rule="nonzero"/></clipPath><g clip-path="url(#p.0)"><path fill="#000000" fill-opacity="0.0" d="m0 0l168.37007 0l0 166.51181l-168.37007 0z" fill-rule="evenodd"/><path fill="#cfe2f3" d="m2.367454 29.247263l0 0c0 -15.032302 12.186089 -27.218391 27.218391 -27.218391l108.8703 0l0 0c7.2187653 0 14.141876 2.867644 19.246307 7.972082c5.1044464 5.104439 7.9720917 12.027544 7.9720917 19.24631l0 108.87031c0 15.032303 -12.186096 27.218384 -27.2184 27.218384l-108.8703 0c-15.032303 0 -27.218391 -12.186081 -27.218391 -27.218384z" fill-rule="evenodd"/><path stroke="#000000" stroke-width="1.0" stroke-linejoin="round" stroke-linecap="butt" d="m2.367454 29.247263l0 0c0 -15.032302 12.186089 -27.218391 27.218391 -27.218391l108.8703 0l0 0c7.2187653 0 14.141876 2.867644 19.246307 7.972082c5.1044464 5.104439 7.9720917 12.027544 7.9720917 19.24631l0 108.87031c0 15.032303 -12.186096 27.218384 -27.2184 27.218384l-108.8703 0c-15.032303 0 -27.218391 -12.186081 -27.218391 -27.218384z" fill-rule="evenodd"/><path fill="#ff0000" d="m15.981707 82.57695l0 0c0 -37.19877 30.155561 -67.35433 67.35433 -67.35433l0 0c17.86348 0 34.995316 7.096239 47.6267 19.727625c12.631393 12.63139 19.72763 29.763226 19.72763 47.626705l0 0c0 37.19877 -30.155563 67.354324 -67.35433 67.354324l0 0c-37.19877 0 -67.35433 -30.155556 -67.35433 -67.354324zm104.419044 19.957924c8.813591 -16.36808 5.847191 -36.5794 -7.2980194 -49.724613c-13.145218 -13.145214 -33.35653 -16.111607 -49.724613 -7.298023zm-74.129425 -39.915848l0 0c-8.813583 16.368088 -5.847191 36.5794 7.298023 49.724617c13.145214 13.14521 33.356533 16.111603 49.724613 7.2980194z" fill-rule="evenodd"/><path stroke="#000000" stroke-width="1.0" stroke-linejoin="round" stroke-linecap="butt" d="m15.981707 82.57695l0 0c0 -37.19877 30.155561 -67.35433 67.35433 -67.35433l0 0c17.86348 0 34.995316 7.096239 47.6267 19.727625c12.631393 12.63139 19.72763 29.763226 19.72763 47.626705l0 0c0 37.19877 -30.155563 67.354324 -67.35433 67.354324l0 0c-37.19877 0 -67.35433 -30.155556 -67.35433 -67.354324zm104.419044 19.957924c8.813591 -16.36808 5.847191 -36.5794 -7.2980194 -49.724613c-13.145218 -13.145214 -33.35653 -16.111607 -49.724613 -7.298023zm-74.129425 -39.915848l0 0c-8.813583 16.368088 -5.847191 36.5794 7.298023 49.724617c13.145214 13.14521 33.356533 16.111603 49.724613 7.2980194z" fill-rule="evenodd"/></g></svg>